<?xml version="1.0" encoding="iso-8859-1"?>
<!-- Generator: Adobe Illustrator 19.0.0, SVG Export Plug-In . SVG Version: 6.00 Build 0)  -->
<svg version="1.1" id="Capa_1" xmlns="http://www.w3.org/2000/svg" xmlns:xlink="http://www.w3.org/1999/xlink" x="0px" y="0px"
	 viewBox="0 0 512 512" style="enable-background:new 0 0 512 512;" xml:space="preserve">
<path style="fill:#FF3F2E;" d="M361,286H257.199v43.2L241,346v105c0,8.401-6.599,15-15,15H15c-8.401,0-15-6.599-15-15V271
	c0-41.4,34.6-75,76-75h225c8.401,0,15,6.599,15,15c0,24,18.9,43.801,42.599,44.7L361,286z"/>
<path style="fill:#CF0404;" d="M361,286H257.199v43.2L241,346v105c0,8.401-6.599,15-15,15h-75V196h150c8.401,0,15,6.599,15,15
	c0,24,18.9,43.801,42.599,44.7L361,286z"/>
<path style="fill:#F2D1A5;" d="M211,106h-98.401C95.799,120.399,76,136,76,136v15c0,41.4,33.6,75,75,75s75-33.6,75-75v-30
	C226,112.599,219.401,106,211,106z"/>
<path style="fill:#F2BB88;" d="M226,121v30c0,41.4-33.6,75-75,75V106h60C219.401,106,226,112.599,226,121z"/>
<path style="fill:#4AB8F7;" d="M436,271H241v75h30v105c0,8.401,6.599,15,15,15h211c8.401,0,15-6.599,15-15V346
	C512,304.6,477.4,271,436,271z"/>
<path style="fill:#F2D1A5;" d="M404.801,181H301c-8.401,0-15,6.599-15,15v30c0,41.4,33.6,75,75,75s75-33.6,75-75v-15L404.801,181z"
	/>
<path style="fill:#1EA1E3;" d="M512,346v105c0,8.401-6.599,15-15,15H361.3c-0.3-60.3-0.3-165-0.3-165v-30h75
	C477.4,271,512,304.6,512,346z"/>
<path style="fill:#F2BB88;" d="M436,211v15c0,41.4-33.6,75-75,75V181h43.801L436,211z"/>
<path style="fill:#3F6199;" d="M361,121h-90c-8.401,0-15,6.599-15,15c0,27.001,14.099,51.301,37.5,64.799
	C304.9,207.4,317.8,211,331,211h105v-15C436,154.6,402.4,121,361,121z"/>
<path style="fill:#355382;" d="M436,211h-75v-90c41.4,0,75,33.6,75,75V211z"/>
<path style="fill:#3F6199;" d="M241,46h-90c-41.4,0-75,33.6-75,75v15h105c41.4,0,75-33.6,75-75C256,52.599,249.401,46,241,46z"/>
<path style="fill:#355382;" d="M181,136h-30V46h90c8.401,0,15,6.599,15,15C256,102.4,222.4,136,181,136z"/>
<g>
</g>
<g>
</g>
<g>
</g>
<g>
</g>
<g>
</g>
<g>
</g>
<g>
</g>
<g>
</g>
<g>
</g>
<g>
</g>
<g>
</g>
<g>
</g>
<g>
</g>
<g>
</g>
<g>
</g>
</svg>
