<svg id="Capa_1" enable-background="new 0 0 512.007 512.007" height="512" viewBox="0 0 512.007 512.007" width="512" xmlns="http://www.w3.org/2000/svg"><g><circle cx="256.007" cy="226.002" fill="#ff4d4d" r="195"/><path d="m451.007 226.002c0-107.695-87.305-195-195-195v390c107.696 0 195-87.305 195-195z" fill="#e62e2e"/><path d="m503.211 460.776-69.35-69.364-21.614 20.896-21.541 20.823 70.082 70.082c11.812 11.752 30.67 11.689 42.393.029 11.741-11.71 11.785-30.681.03-42.466z" fill="#3d4566"/><path d="m503.211 460.776-69.35-69.364-21.614 20.896 90.934 90.934c11.741-11.71 11.785-30.681.03-42.466z" fill="#2e2e4d"/><path d="m46.646 4.402c-4.336-4.307-10.781-5.61-16.465-3.208-5.625 2.388-9.229 7.939-9.141 14.048.033 2.113.441 4.352.674 6.533 3.344 31.448 28.147 70.659 72.367 114.906l302.067 301.891 21.182-21.182 21.242-21.242z" fill="#d7dce6"/><path d="m46.646 4.402c-4.336-4.307-10.781-5.61-16.465-3.208-5.625 2.388-9.229 7.939-9.141 14.048.033 2.113.441 4.352.674 6.533l395.616 395.616 21.242-21.242z" fill="#b8bfcc"/><path d="m459.906 374.83c-5.859-5.859-15.352-5.859-21.211 0l-31.967 31.959-31.901 31.893c-5.859 5.859-5.859 15.352 0 21.211s15.352 5.859 21.211 0l31.902-31.893 31.967-31.959c5.859-5.86 5.859-15.352-.001-21.211z" fill="#ffb366"/><path d="m459.906 374.83c-5.859-5.859-15.352-5.859-21.211 0l-31.967 31.959 21.212 21.211 31.967-31.959c5.859-5.86 5.859-15.352-.001-21.211z" fill="#ff884d"/><path d="m99.76 412.308-21.614-20.896-69.35 69.364c-11.755 11.785-11.711 30.756.029 42.466 11.722 11.66 30.58 11.722 42.393-.029l70.082-70.082z" fill="#4d5e80"/><path d="m51.218 503.213 70.082-70.082-21.54-20.823-90.934 90.934c11.722 11.66 30.58 11.722 42.392-.029z" fill="#3d4566"/><path d="m481.826 1.194c-5.684-2.402-12.129-1.099-16.465 3.208l-391.926 391.747 21.242 21.242 21.182 21.182 285.275-307.467c44.22-44.247 85.818-77.882 89.16-109.333.233-2.179.641-4.418.674-6.531.087-6.109-3.517-11.661-9.142-14.048z" fill="#f3f5f9"/><path d="m417.926 136.681c44.22-44.247 69.026-83.458 72.367-114.908l-395.616 395.618 21.182 21.182z" fill="#d7dce6"/><path d="m137.179 438.682-31.901-31.893-31.966-31.959c-5.859-5.859-15.352-5.859-21.211 0s-5.859 15.352 0 21.211l31.967 31.959 31.901 31.893c5.859 5.859 15.352 5.859 21.211 0s5.859-15.351-.001-21.211z" fill="#ffdc99"/><path d="m137.179 459.893c5.859-5.859 5.859-15.352 0-21.211l-31.901-31.893-21.21 21.211 31.901 31.893c5.858 5.86 15.351 5.86 21.21 0z" fill="#ffb366"/></g></svg>