<svg id="Layer_1" enable-background="new 0 0 510.288 510.288" height="512" viewBox="0 0 510.288 510.288" width="512" xmlns="http://www.w3.org/2000/svg"><g><g><path d="m502.093 318.265c.236-.91.463-1.826.688-2.743-.222.916-.455 1.829-.688 2.743z" fill="#bfe5fe"/><path d="m255 .144c-98.131 0-158.574 55.347-158.741 55.441-3.787 17.481-10.374 42.85-10.374 61.465 0 140.833 118.763 254.972 259.596 254.972 60.017 0 115.159-27.944 158.719-62.639.178-1.087 5.8-23.477 5.8-54.239 0-140.833-114.167-255-255-255z" fill="#b4e7fd"/><path d="m345.459 364.823c-140.833 0-255-114.167-255-255 0-18.615 2.013-36.757 5.801-54.239-.006.005-.011.01-.017.014-24.452 19.48-45.244 43.357-61.178 70.436l-30.34 80.007c-3.1 15.889-4.725 32.306-4.725 49.103 0 17.777 1.819 35.128 5.281 51.879l31.426 80.001c44.68 73.798 125.727 123.12 218.293 123.12 121.17 0 224.116-84.98 249.199-200.761-43.559 34.695-98.724 55.44-158.74 55.44z" fill="#a0cafe"/></g><path d="m339.653 391.985v-80h-79.146c-1.339 0-2.605-.583-3.477-1.6l-132.523-154.771c-16.09-18.791-39.506-29.568-64.244-29.568h-25.18c-14.338 24.366-24.738 51.321-30.334 80h55.515c1.339 0 2.606.583 3.477 1.6l132.523 154.771c16.09 18.791 39.506 29.568 64.244 29.568z" fill="#5c83ef"/><path d="m63.739 207.646 82.994 96.927h51.507v-62.847l-73.734-86.112c-16.09-18.791-39.506-29.568-64.244-29.568h-25.18c-14.338 24.366-24.738 51.321-30.334 80h55.515c1.339 0 2.606.583 3.476 1.6z" fill="#5c83ef"/><g><path d="m269.747 311.985h69.907v80h-69.907z" fill="#3f67cd"/></g><g><path d="m295.99 286.582v130.805c0 15.656 17.449 24.994 30.475 16.309l98.094-65.403c11.637-7.759 11.637-24.859 0-32.618l-98.094-65.403c-13.026-8.684-30.475.654-30.475 16.31z" fill="#4572e3"/></g><path d="m337.507 201.083h79.146v-80h-79.146c-24.738 0-48.154 10.777-64.244 29.568l-132.524 154.771c-.87 1.017-2.138 1.6-3.477 1.6h-131.975c5.938 28.73 16.708 55.693 31.424 80h100.552c24.738 0 48.154-10.777 64.244-29.568l132.523-154.771c.871-1.017 2.138-1.6 3.477-1.6z" fill="#fba72d"/><g><path d="m346.747 121.083h69.907v80h-69.907z" fill="#fba72d"/></g><path d="m372.99 226.485v-130.805c0-15.656 17.449-24.994 30.475-16.309l98.094 65.403c11.637 7.759 11.637 24.859 0 32.618l-98.094 65.403c-13.026 8.684-30.475-.654-30.475-16.31z" fill="#ffe565"/></g></svg>