<svg id="Capa_1" enable-background="new 0 0 512 512" height="512" viewBox="0 0 512 512" width="512" xmlns="http://www.w3.org/2000/svg"><g><g><path d="m470.153 256.001h-52.528v-32.325h52.528c4.463 0 8.081 3.618 8.081 8.081v16.162c0 4.464-3.618 8.082-8.081 8.082z" fill="#e6f7fe"/></g><g><path d="m417.625 223.676h20.203v32.325h-20.203z" fill="#d3effd"/></g><g><path d="m41.847 256.001h52.528v-32.325h-52.528c-4.463 0-8.081 3.618-8.081 8.081v16.162c0 4.464 3.618 8.082 8.081 8.082z" fill="#e6f7fe"/></g><g><path d="m74.172 223.676h20.203v32.325h-20.203z" fill="#d3effd"/></g><g><path d="m383.28 426.717s-62.63-27.274-127.28-27.274-127.28 27.274-127.28 27.274v-222.234h254.56z" fill="#407194"/></g><g><path d="m413.83 169.856c-17.189-85.651-87.506-128.455-157.83-128.448-70.339.007-140.671 42.844-157.838 128.447h315.668z" fill="#9facba"/></g><g><path d="m98.162 169.856h315.668c-3.022-15.06-7.693-28.789-13.712-41.2-25.025-9.288-66.409-31.225-95.055-80.104-15.89-4.762-32.476-7.145-49.063-7.144-16.59.002-33.178 2.388-49.069 7.154-28.65 48.877-70.036 70.812-95.058 80.097-6.021 12.411-10.692 26.139-13.711 41.197z" fill="#8d9ca8"/></g><g><path d="m320.65 272.892v123.931c0 15.026-3.352 29.863-9.813 43.43l-30.594 64.247 161.625-62.63-12.122-16.162c-7.868-10.491-12.122-23.252-12.122-36.366v-216.843c0-8.898-5.812-16.754-14.33-19.329-31.37-9.483-105.859-41.658-137.69-138.688-3.053-9.306-16.159-9.306-19.211 0-31.831 97.029-106.319 129.205-137.69 138.688-8.517 2.575-14.33 10.431-14.33 19.329v216.843c0 13.114-4.253 25.874-12.122 36.366l-12.12 16.162 161.625 62.63-30.594-64.247c-6.46-13.567-9.813-28.404-9.813-43.43v-123.931l-40.406-11.112-10.102-47.477 93.944 20.203v75.762l21.215 9.091 21.213-9.091v-75.762l93.944-20.203-10.102 47.477z" fill="#c5d3dd"/></g><g><path d="m390.351 151.673v257.872c0 13.114 4.253 25.874 12.122 36.366l6.523 8.698 32.873-12.738-12.122-16.162c-7.868-10.491-12.122-23.252-12.122-36.366v-216.844c0-8.898-5.812-16.754-14.33-19.329-3.808-1.151-8.256-2.64-13.181-4.536.151.996.237 2.009.237 3.039z" fill="#b6c4cf"/></g><g><circle cx="256" cy="156.724" fill="#5d91b9" r="20.203"/></g><g><path d="m263.231 137.877c.863 2.248 1.356 4.679 1.356 7.231 0 11.158-9.045 20.203-20.203 20.203-2.551 0-4.983-.493-7.231-1.356 2.911 7.582 10.241 12.973 18.847 12.973 11.158 0 20.203-9.045 20.203-20.203 0-8.608-5.391-15.937-12.972-18.848z" fill="#4980ac"/></g><g><ellipse cx="385.3" cy="354.996" rx="8.081" ry="8.081" transform="matrix(.987 -.16 .16 .987 -51.889 66.302)"/><ellipse cx="385.3" cy="387.321" rx="8.081" ry="8.081" transform="matrix(.987 -.16 .16 .987 -57.067 66.719)"/><ellipse cx="385.3" cy="419.646" rx="8.081" ry="8.081" transform="matrix(.987 -.16 .16 .987 -62.245 67.137)"/><path d="m470.153 216.176h-45.024v-43.674c0-7.347-2.833-14.092-7.607-19.101-7.573-26.449-20.527-49.471-38.557-68.436-2.854-3.002-7.601-3.122-10.603-.268s-3.122 7.602-.268 10.603c13.138 13.819 23.31 30.06 30.386 48.414-27.139-9.465-75.897-33.666-108.117-91.174 18.809 4.032 36.635 11.353 52.203 21.53 1.266.828 2.689 1.224 4.097 1.224 2.447 0 4.846-1.196 6.285-3.397 2.266-3.467 1.293-8.115-2.174-10.381-20.286-13.261-44.013-22.11-68.86-25.728-3.348-7.404-6.43-15.27-9.178-23.645-2.425-7.376-8.994-12.143-16.736-12.143s-14.311 4.767-16.736 12.145c-2.749 8.381-5.834 16.252-9.184 23.659-30.524 4.435-58.734 16.52-81.808 35.133-25.696 20.728-44.246 49.212-53.788 82.456-4.777 5.01-7.613 11.757-7.613 19.107v43.674h-45.024c-8.592 0-15.581 6.989-15.581 15.581v16.163c0 8.592 6.99 15.581 15.581 15.581h45.024v11.22c0 4.143 3.358 7.5 7.5 7.5s7.5-3.357 7.5-7.5v-102.217c0-5.642 3.616-10.524 8.999-12.15 28.56-8.631 93.882-36.228 130.926-114.143.138-.258.266-.521.374-.795 4.177-8.87 7.994-18.377 11.344-28.589.497-1.508 1.626-1.825 2.486-1.825s1.989.317 2.483 1.821c3.361 10.244 7.191 19.779 11.384 28.673.096.234.204.462.323.685 37.043 77.937 102.376 105.54 130.94 114.172 5.382 1.626 8.998 6.509 8.998 12.15v164.999c0 4.143 3.358 7.5 7.5 7.5s7.5-3.357 7.5-7.5v-73.999h45.024c8.592 0 15.581-6.989 15.581-15.581v-16.163c.001-8.592-6.989-15.581-15.58-15.581zm-428.306 32.325c-.321 0-.582-.261-.582-.581v-16.163c0-.32.261-.581.582-.581h45.024v17.325zm71.7-104.796c9.444-24.331 24.495-45.243 44.143-61.092 18.288-14.753 40.174-24.997 63.945-30.068-32.209 57.486-80.946 81.689-108.088 91.16zm357.187 104.215c0 .32-.261.581-.582.581h-45.024v-17.325h45.024c.321 0 .582.261.582.581z"/><path d="m435.748 421.209c-6.848-9.128-10.62-20.446-10.62-31.869v-16.84c0-4.143-3.358-7.5-7.5-7.5s-7.5 3.357-7.5 7.5v16.84c0 14.648 4.837 29.163 13.62 40.87l6.182 8.243-134.806 52.235 22.486-47.213c6.895-14.472 10.539-30.605 10.539-46.655v-118.213l34.898-9.595c2.702-.742 4.765-2.93 5.348-5.671l10.1-47.48c.529-2.487-.238-5.073-2.039-6.869-1.8-1.797-4.388-2.562-6.874-2.023l-93.95 20.2c-3.456.742-5.923 3.798-5.923 7.332v70.824l-13.709 5.876-13.71-5.876v-70.824c0-3.534-2.468-6.59-5.923-7.332l-93.95-20.2c-2.487-.539-5.074.227-6.874 2.023s-2.567 4.382-2.039 6.869l10.1 47.48c.583 2.741 2.645 4.929 5.348 5.671l34.898 9.595v118.213c0 16.05 3.645 32.183 10.538 46.654l22.486 47.214-134.805-52.235 6.182-8.242c8.783-11.708 13.621-26.222 13.621-40.871v-79.62c0-4.143-3.358-7.5-7.5-7.5s-7.5 3.357-7.5 7.5v79.62c0 11.423-3.771 22.741-10.62 31.87l-12.12 16.16c-1.409 1.878-1.856 4.308-1.21 6.564.646 2.257 2.312 4.081 4.5 4.929l161.629 62.629c2.864 1.111 6.118.361 8.208-1.892s2.594-5.552 1.273-8.326l-30.6-64.251c-3.625-7.609-6.201-15.754-7.664-24.088 19.737-3.974 38.458-5.992 55.732-5.992s35.995 2.019 55.732 5.992c-1.462 8.335-4.038 16.479-7.664 24.089l-30.599 64.25c-1.321 2.774-.816 6.073 1.273 8.326 1.447 1.56 3.452 2.398 5.499 2.398.909 0 1.827-.165 2.708-.507l161.629-62.629c2.189-.848 3.854-2.672 4.5-4.929s.198-4.686-1.21-6.564zm-179.748-29.266c-17.807 0-36.99 2.007-57.134 5.972-.004-.365-.016-.73-.016-1.095v-123.93c0-3.376-2.256-6.337-5.512-7.231l-36.011-9.9-6.741-31.691 76.704 16.492v69.71c0 3 1.788 5.712 4.545 6.894l21.21 9.091c1.887.809 4.022.809 5.909 0l21.21-9.091c2.757-1.182 4.545-3.894 4.545-6.894v-69.71l76.704-16.492-6.741 31.691-36.011 9.9c-3.255.895-5.512 3.855-5.512 7.231v123.93c0 .365-.011.73-.016 1.095-20.143-3.964-39.326-5.972-57.133-5.972z"/><path d="m256 184.427c15.275 0 27.703-12.428 27.703-27.704 0-15.275-12.428-27.703-27.703-27.703s-27.703 12.428-27.703 27.703c0 15.277 12.428 27.704 27.703 27.704zm0-40.407c7.004 0 12.703 5.698 12.703 12.703s-5.699 12.704-12.703 12.704-12.703-5.699-12.703-12.704c0-7.004 5.699-12.703 12.703-12.703z"/></g></g></svg>